<svg xmlns="http://www.w3.org/2000/svg" xmlns:xlink="http://www.w3.org/1999/xlink" width="500" zoomAndPan="magnify" viewBox="0 0 375 374.999991" height="500" preserveAspectRatio="xMidYMid meet" version="1.0"><defs><g/><clipPath id="11ce520f21"><path d="M 101.167969 91.675781 L 286.8125 91.675781 L 286.8125 277.324219 L 101.167969 277.324219 Z M 101.167969 91.675781 " clip-rule="nonzero"/></clipPath><clipPath id="5f7121b881"><path d="M 193.992188 91.675781 C 142.726562 91.675781 101.167969 133.234375 101.167969 184.5 C 101.167969 235.765625 142.726562 277.324219 193.992188 277.324219 C 245.257812 277.324219 286.8125 235.765625 286.8125 184.5 C 286.8125 133.234375 245.257812 91.675781 193.992188 91.675781 Z M 193.992188 91.675781 " clip-rule="nonzero"/></clipPath><clipPath id="1ad5e4cb24"><path d="M 122.484375 204.324219 L 159.234375 204.324219 L 159.234375 241.074219 L 122.484375 241.074219 Z M 122.484375 204.324219 " clip-rule="nonzero"/></clipPath><clipPath id="d7cfa47775"><path d="M 168.386719 242.5625 L 193.136719 242.5625 L 193.136719 267.3125 L 168.386719 267.3125 Z M 168.386719 242.5625 " clip-rule="nonzero"/></clipPath><clipPath id="89860faf4a"><path d="M 242.789062 214.996094 L 258.539062 214.996094 L 258.539062 230.746094 L 242.789062 230.746094 Z M 242.789062 214.996094 " clip-rule="nonzero"/></clipPath><clipPath id="cf5538b9d8"><path d="M 210.625 196.460938 L 226.375 196.460938 L 226.375 212.210938 L 210.625 212.210938 Z M 210.625 196.460938 " clip-rule="nonzero"/></clipPath><clipPath id="3369f1adf6"><path d="M 159.554688 120.144531 L 175.304688 120.144531 L 175.304688 135.894531 L 159.554688 135.894531 Z M 159.554688 120.144531 " clip-rule="nonzero"/></clipPath><clipPath id="4a5b0e562c"><path d="M 186.128906 98.859375 L 207.128906 98.859375 L 207.128906 119.859375 L 186.128906 119.859375 Z M 186.128906 98.859375 " clip-rule="nonzero"/></clipPath></defs><rect x="-37.5" width="450" fill="#ffffff" y="-37.499999" height="449.999989" fill-opacity="1"/><rect x="-37.5" width="450" fill="#f6f1e3" y="-37.499999" height="449.999989" fill-opacity="1"/><g clip-path="url(#11ce520f21)"><g clip-path="url(#5f7121b881)"><path fill="#5b4f47" d="M 101.167969 91.675781 L 286.8125 91.675781 L 286.8125 277.324219 L 101.167969 277.324219 Z M 101.167969 91.675781 " fill-opacity="1" fill-rule="nonzero"/></g></g><path stroke-linecap="butt" transform="matrix(1.08591, -0.0984809, 0.0984809, 1.08591, 80.311816, 149.889893)" fill="none" stroke-linejoin="miter" d="M 16.492567 49.238617 C 24.381297 49.238198 29.668392 44.487333 33.562239 32.926489 C 35.162498 28.17221 37.934595 20.333474 39.159472 16.545177 C 41.243784 10.895923 39.797401 7.329411 32.390972 7.326805 C 20.487817 7.326476 12.495067 15.216945 12.496111 24.487063 C 12.493982 28.120057 14.7875 31.428854 19.161623 31.429849 C 24.331041 31.427427 27.102873 26.844147 26.151055 24.487984 C 24.98179 24.48986 24.120398 23.318187 24.123306 21.778843 C 24.121311 17.0807 28.497217 14.840791 33.559822 15.857485 C 32.38984 18.524833 30.580643 23.004762 29.029855 27.054876 C 26.570126 33.511832 21.986408 36.178949 18.522075 36.181325 C 15.266619 36.18106 12.701623 34.358472 12.702664 31.689433 C 12.703557 31.322598 12.339583 31.052173 11.908203 31.049024 C 7.961892 31.050855 5.346628 35.216669 5.346569 39.421808 C 5.34809 44.91849 9.082246 49.239256 16.492567 49.238617 Z M 62.305618 32.39285 C 61.029074 34.251952 59.583952 34.995017 58.033581 34.994706 L 57.670314 34.994136 C 58.203804 33.236716 58.466119 31.375565 58.465714 29.515768 C 58.464898 22.781708 55.053549 20.335588 50.679426 20.334594 C 42.204279 20.335789 36.018851 30.034091 36.019295 38.041531 C 36.019853 43.588487 39.480389 46.999524 44.271944 46.998806 C 48.2828 46.999231 52.059942 44.658257 54.727866 41.022413 L 55.364556 41.022598 C 60.547921 41.025038 63.152831 36.973397 64.6999 33.717929 C 65.289294 32.49437 62.942433 31.479355 62.305618 32.39285 Z M 47.320011 35.958397 C 45.287662 35.957541 44.54819 34.631454 44.544934 33.080759 C 44.545073 30.738985 46.304078 28.121458 48.922843 28.121537 C 51.005789 28.119787 51.850339 29.397848 51.850351 30.944652 C 51.852136 33.185879 49.98905 35.959438 47.320011 35.958397 Z M 86.086951 32.391244 C 84.813652 34.254237 83.36853 34.997303 81.818158 34.996991 C 81.077353 34.994558 80.439343 34.889933 79.904128 34.683117 C 84.228102 26.312442 84.866064 20.229852 80.387501 20.230178 C 76.700342 20.230331 75.046401 24.227925 75.045799 28.915041 C 75.04812 30.63472 75.267398 32.222992 75.631998 33.874804 C 75.098301 34.682541 73.978938 35.958759 71.741279 35.960868 C 69.554217 35.960371 68.601661 34.683306 68.602516 32.650957 C 68.602807 29.514212 71.000133 25.450939 70.997214 22.468583 C 70.997202 20.921779 70.413577 20.336463 69.345183 20.336695 C 66.413748 20.333441 63.52556 26.794706 62.197934 32.390279 C 60.543914 39.006638 61.870593 46.947299 67.586533 46.947677 C 70.841989 46.947942 73.980703 44.070639 76.64923 40.229808 C 77.392098 40.764817 78.250048 41.022485 79.160161 41.022287 C 84.329255 41.023432 86.948436 36.973085 88.484477 33.720215 C 89.070303 32.496332 86.727011 31.48164 86.086951 32.391244 Z M 90.510309 47.001396 C 94.301908 46.999923 97.50439 43.53846 99.637643 39.213822 L 99.846197 39.21475 C 99.211118 43.639284 100.758977 46.999167 104.431541 47.001287 C 110.356359 46.999025 113.283389 38.681521 115.902373 33.721061 C 116.433429 32.704447 114.298239 31.100699 113.504846 32.39209 C 112.436499 34.097407 111.0962 35.112575 109.286677 35.113942 C 106.944903 35.113803 106.358021 32.977791 108.167995 29.084279 C 109.337559 25.985228 110.732209 24.331087 110.73177 22.31301 C 110.731188 21.129473 110.249362 20.333959 108.857271 20.333613 C 106.357216 20.333508 105.978499 22.367561 104.223141 22.366645 C 102.827483 22.365976 103.051164 20.335849 98.781479 20.333535 C 89.61191 20.336502 85.017397 31.531637 85.017065 38.952661 C 85.018746 43.693943 86.891587 47.000562 90.510309 47.001396 Z M 95.849877 35.960164 C 94.19539 35.957605 93.180606 34.890729 93.182807 33.081529 C 93.179378 30.739431 94.938383 28.121905 97.711861 28.121626 C 99.416945 28.12158 100.485571 29.189741 100.484656 30.945099 C 100.486441 33.186326 98.623355 35.959885 95.849877 35.960164 Z M 115.629892 46.99885 C 119.317051 46.998697 120.006946 44.071978 120.005705 41.348773 L 120.00713 38.953158 C 120.00642 34.201172 122.674172 29.773925 125.760643 29.773254 C 126.983749 29.772663 127.792806 30.410799 127.793073 31.637473 C 127.792575 33.824535 125.550506 37.405472 125.553981 41.452654 C 125.553332 44.434687 126.72348 47.001302 130.083375 47.000247 C 137.285141 46.99868 140.914585 36.647702 142.6226 33.719788 C 143.207499 32.70446 141.071984 31.10428 140.214047 32.393415 C 139.144379 33.994293 138.143692 35.112205 136.542724 35.114499 C 134.783798 35.11326 133.976963 34.252299 133.975597 32.442776 C 133.976638 29.773736 135.681675 28.068606 135.682358 25.244854 C 135.683399 22.575815 134.131243 20.334277 130.890059 20.335306 C 128.534013 20.333873 126.400064 21.453329 124.431379 23.368369 C 122.728615 25.088094 121.658133 24.437041 121.65898 22.365122 C 121.658748 21.296729 121.332247 20.33544 119.900586 20.335102 C 117.922079 20.335533 115.255276 26.140599 113.494143 32.39112 C 112.273609 36.766157 111.739272 40.595496 111.738197 43.106254 C 111.736414 45.347157 113.129837 46.998746 115.629892 46.99885 Z M 142.349796 47.001146 C 146.033387 47.000669 146.723606 44.070382 146.722041 41.350745 L 146.723466 38.955129 C 146.72308 34.199576 149.390508 29.775897 152.476979 29.775225 C 153.700086 29.774635 154.509142 30.412771 154.509733 31.635877 C 154.509235 33.822939 152.270733 37.4042 152.270317 41.454626 C 152.269669 44.436659 153.44014 46.999706 156.800035 46.998651 C 164.001477 47.000652 167.63449 36.649998 169.33926 33.718192 C 169.924158 32.702864 167.788644 31.102684 166.930707 32.391819 C 165.861039 33.992697 164.860029 35.114177 163.259384 35.112903 C 161.500458 35.111664 160.6933 34.25427 160.691933 32.444747 C 160.692974 29.775708 162.398335 28.06701 162.399018 25.243258 C 162.400059 22.574219 160.851147 20.336572 157.606719 20.33371 C 155.25035 20.335845 153.1164 21.455301 151.151607 23.367096 C 149.445275 25.086498 148.378361 24.435769 148.375316 22.367094 C 148.375084 21.2987 148.052475 20.334167 146.620814 20.33383 C 144.638739 20.333937 141.971612 26.142571 140.214047 32.393415 C 138.990269 36.764561 138.455932 40.5939 138.454533 43.108226 C 138.456642 45.345885 139.849741 47.001041 142.349796 47.001146 Z M 171.357957 46.998727 C 175.145663 47.000498 178.34847 43.535467 180.484966 39.214721 L 180.69352 39.215648 C 180.054874 43.639859 181.602733 46.999742 185.27562 46.998294 C 191.200115 46.9996 194.131036 38.678852 196.746452 33.718068 C 197.280753 32.705345 195.145562 31.101597 194.35217 32.392989 C 193.283822 34.098306 191.943523 35.113474 190.130756 35.110949 C 187.788658 35.114378 187.201777 32.978366 189.011751 29.084854 C 190.184883 25.986127 191.575965 24.331662 191.579094 22.313908 C 191.578512 21.130372 191.096686 20.334857 189.701027 20.334188 C 187.200972 20.334083 186.826146 22.364892 185.066897 22.36722 C 183.674806 22.366875 183.894919 20.336424 179.625235 20.33411 C 170.459557 20.333833 165.861153 31.532212 165.864389 38.95356 C 165.862501 43.694518 167.73891 47.00146 171.357957 46.998727 Z M 176.693956 35.957171 C 175.042714 35.958503 174.027929 34.891627 174.026562 33.082104 C 174.027025 30.736762 175.785706 28.122804 178.555616 28.122201 C 180.264268 28.122478 181.32965 29.186748 181.331979 30.945997 C 181.330196 33.186901 179.467111 35.96046 176.693956 35.957171 Z M 176.693956 35.957171 " stroke="#5b4f47" stroke-width="3.999998" stroke-opacity="1" stroke-miterlimit="4"/><g fill="#f6f1e3" fill-opacity="1"><g transform="translate(93.64466, 200.138256)"><g><path d="M 9.4375 1.59375 C 18 0.8125 23.265625 -4.84375 26.359375 -17.8125 C 27.609375 -23.125 29.859375 -31.90625 30.828125 -36.125 C 32.53125 -42.484375 30.609375 -46.21875 22.5625 -45.5 C 9.640625 -44.328125 1.75 -34.953125 2.65625 -24.890625 C 3.015625 -20.953125 5.828125 -17.59375 10.578125 -18.015625 C 16.1875 -18.53125 18.75 -23.765625 17.46875 -26.234375 C 16.203125 -26.125 15.15625 -27.3125 15 -29 C 14.53125 -34.078125 19.0625 -36.9375 24.6875 -36.34375 C 23.65625 -33.34375 22.140625 -28.28125 20.84375 -23.71875 C 18.828125 -16.484375 14.109375 -13.140625 10.34375 -12.796875 C 6.8125 -12.484375 3.859375 -14.1875 3.609375 -17.09375 C 3.5625 -17.5 3.109375 -17.734375 2.65625 -17.703125 C -1.640625 -17.3125 -4.046875 -12.546875 -3.640625 -7.96875 C -3.09375 -1.984375 1.375 2.3125 9.4375 1.59375 Z M 9.4375 1.59375 "/></g></g></g><g fill="#f6f1e3" fill-opacity="1"><g transform="translate(123.699645, 197.412577)"><g><path d="M 27.453125 -18.5 C 26.265625 -16.34375 24.75 -15.390625 23.09375 -15.234375 L 22.671875 -15.1875 C 23.09375 -17.15625 23.1875 -19.234375 23.015625 -21.25 C 22.34375 -28.546875 18.390625 -30.859375 13.65625 -30.421875 C 4.4375 -29.59375 -1.328125 -18.453125 -0.53125 -9.75 C 0.015625 -3.734375 4.109375 -0.375 9.328125 -0.84375 C 13.65625 -1.234375 17.546875 -4.15625 20.09375 -8.359375 L 20.765625 -8.421875 C 26.390625 -8.9375 28.84375 -13.59375 30.203125 -17.28125 C 30.734375 -18.671875 28.0625 -19.546875 27.453125 -18.5 Z M 11.53125 -13.125 C 9.328125 -12.9375 8.390625 -14.3125 8.234375 -15.984375 C 8 -18.53125 9.671875 -21.5625 12.5 -21.8125 C 14.765625 -22.015625 15.8125 -20.703125 15.96875 -19.015625 C 16.1875 -16.59375 14.421875 -13.390625 11.53125 -13.125 Z M 11.53125 -13.125 "/></g></g></g><g fill="#f6f1e3" fill-opacity="1"><g transform="translate(151.264525, 194.912725)"><g><path d="M 25.734375 -18.34375 C 24.515625 -16.1875 23.03125 -15.234375 21.34375 -15.078125 C 20.53125 -15 19.828125 -15.0625 19.234375 -15.234375 C 23.09375 -24.75 23.1875 -31.40625 18.3125 -30.96875 C 14.34375 -30.609375 12.921875 -26.109375 13.390625 -21.015625 C 13.5625 -19.15625 13.953125 -17.4375 14.515625 -15.6875 C 14.015625 -14.75 12.921875 -13.25 10.484375 -13.03125 C 8.125 -12.8125 6.953125 -14.109375 6.765625 -16.3125 C 6.453125 -19.734375 8.640625 -24.375 8.34375 -27.609375 C 8.203125 -29.296875 7.5 -29.875 6.359375 -29.765625 C 3.15625 -29.484375 0.671875 -22.1875 -0.21875 -15.984375 C -1.359375 -8.640625 0.875 -0.140625 7.0625 -0.703125 C 10.59375 -1.03125 13.71875 -4.453125 16.25 -8.890625 C 17.109375 -8.375 18.046875 -8.171875 19.046875 -8.265625 C 24.65625 -8.78125 27.109375 -13.4375 28.453125 -17.125 C 28.984375 -18.5 26.328125 -19.390625 25.734375 -18.34375 Z M 25.734375 -18.34375 "/></g></g></g><g fill="#f6f1e3" fill-opacity="1"><g transform="translate(177.092126, 192.570427)"><g><path d="M 6.140625 -0.5625 C 10.25 -0.9375 13.375 -5.015625 15.28125 -9.90625 L 15.515625 -9.921875 C 15.25 -5.046875 17.25 -1.5625 21.25 -1.921875 C 27.6875 -2.515625 30.0625 -11.84375 32.390625 -17.484375 C 32.875 -18.625 30.421875 -20.15625 29.671875 -18.703125 C 28.671875 -16.734375 27.328125 -15.5 25.359375 -15.328125 C 22.8125 -15.09375 21.96875 -17.34375 23.546875 -21.765625 C 24.515625 -25.21875 25.859375 -27.171875 25.65625 -29.359375 C 25.546875 -30.640625 24.953125 -31.453125 23.4375 -31.3125 C 20.71875 -31.0625 20.515625 -28.84375 18.59375 -28.671875 C 17.09375 -28.53125 17.125 -30.75 12.484375 -30.328125 C 2.53125 -29.421875 -1.34375 -16.8125 -0.625 -8.765625 C -0.15625 -3.609375 2.1875 -0.203125 6.140625 -0.5625 Z M 10.84375 -13.0625 C 9.03125 -12.90625 7.859375 -13.96875 7.671875 -15.921875 C 7.4375 -18.46875 9.078125 -21.5 12.09375 -21.78125 C 13.953125 -21.953125 15.234375 -20.890625 15.40625 -18.96875 C 15.625 -16.546875 13.84375 -13.34375 10.84375 -13.0625 Z M 10.84375 -13.0625 "/></g></g></g><g fill="#f6f1e3" fill-opacity="1"><g transform="translate(206.857573, 189.871006)"><g><path d="M 3.640625 -0.328125 C 7.640625 -0.6875 8.109375 -3.953125 7.84375 -6.90625 L 7.609375 -9.515625 C 7.140625 -14.65625 9.59375 -19.734375 12.953125 -20.03125 C 14.28125 -20.15625 15.21875 -19.546875 15.34375 -18.21875 C 15.5625 -15.828125 13.46875 -11.734375 13.875 -7.328125 C 14.171875 -4.09375 15.703125 -1.421875 19.34375 -1.75 C 27.171875 -2.46875 30.09375 -14.0625 31.640625 -17.40625 C 32.1875 -18.5625 29.71875 -20.09375 28.90625 -18.625 C 27.90625 -16.765625 26.921875 -15.46875 25.1875 -15.3125 C 23.28125 -15.140625 22.328125 -15.984375 22.140625 -17.953125 C 21.875 -20.84375 23.5625 -22.875 23.28125 -25.953125 C 23.015625 -28.84375 21.125 -31.109375 17.59375 -30.78125 C 15.03125 -30.5625 12.828125 -29.140625 10.890625 -26.859375 C 9.203125 -24.84375 7.96875 -25.421875 7.765625 -27.6875 C 7.65625 -28.84375 7.21875 -29.84375 5.65625 -29.703125 C 3.515625 -29.515625 1.1875 -22.9375 -0.09375 -16 C -1.015625 -11.125 -1.203125 -6.90625 -0.96875 -4.1875 C -0.734375 -1.75 0.9375 -0.078125 3.640625 -0.328125 Z M 3.640625 -0.328125 "/></g></g></g><g fill="#f6f1e3" fill-opacity="1"><g transform="translate(235.870194, 187.239859)"><g><path d="M 3.640625 -0.328125 C 7.640625 -0.6875 8.109375 -3.953125 7.84375 -6.90625 L 7.609375 -9.515625 C 7.140625 -14.65625 9.59375 -19.734375 12.953125 -20.03125 C 14.28125 -20.15625 15.21875 -19.546875 15.34375 -18.21875 C 15.5625 -15.828125 13.46875 -11.734375 13.875 -7.328125 C 14.171875 -4.09375 15.703125 -1.421875 19.34375 -1.75 C 27.171875 -2.46875 30.09375 -14.0625 31.640625 -17.40625 C 32.1875 -18.5625 29.71875 -20.09375 28.90625 -18.625 C 27.90625 -16.765625 26.921875 -15.46875 25.1875 -15.3125 C 23.28125 -15.140625 22.328125 -15.984375 22.140625 -17.953125 C 21.875 -20.84375 23.5625 -22.875 23.28125 -25.953125 C 23.015625 -28.84375 21.125 -31.109375 17.59375 -30.78125 C 15.03125 -30.5625 12.828125 -29.140625 10.890625 -26.859375 C 9.203125 -24.84375 7.96875 -25.421875 7.765625 -27.6875 C 7.65625 -28.84375 7.21875 -29.84375 5.65625 -29.703125 C 3.515625 -29.515625 1.1875 -22.9375 -0.09375 -16 C -1.015625 -11.125 -1.203125 -6.90625 -0.96875 -4.1875 C -0.734375 -1.75 0.9375 -0.078125 3.640625 -0.328125 Z M 3.640625 -0.328125 "/></g></g></g><g fill="#f6f1e3" fill-opacity="1"><g transform="translate(264.882815, 184.608712)"><g><path d="M 6.140625 -0.5625 C 10.25 -0.9375 13.375 -5.015625 15.28125 -9.90625 L 15.515625 -9.921875 C 15.25 -5.046875 17.25 -1.5625 21.25 -1.921875 C 27.6875 -2.515625 30.0625 -11.84375 32.390625 -17.484375 C 32.875 -18.625 30.421875 -20.15625 29.671875 -18.703125 C 28.671875 -16.734375 27.328125 -15.5 25.359375 -15.328125 C 22.8125 -15.09375 21.96875 -17.34375 23.546875 -21.765625 C 24.515625 -25.21875 25.859375 -27.171875 25.65625 -29.359375 C 25.546875 -30.640625 24.953125 -31.453125 23.4375 -31.3125 C 20.71875 -31.0625 20.515625 -28.84375 18.59375 -28.671875 C 17.09375 -28.53125 17.125 -30.75 12.484375 -30.328125 C 2.53125 -29.421875 -1.34375 -16.8125 -0.625 -8.765625 C -0.15625 -3.609375 2.1875 -0.203125 6.140625 -0.5625 Z M 10.84375 -13.0625 C 9.03125 -12.90625 7.859375 -13.96875 7.671875 -15.921875 C 7.4375 -18.46875 9.078125 -21.5 12.09375 -21.78125 C 13.953125 -21.953125 15.234375 -20.890625 15.40625 -18.96875 C 15.625 -16.546875 13.84375 -13.34375 10.84375 -13.0625 Z M 10.84375 -13.0625 "/></g></g></g><g clip-path="url(#1ad5e4cb24)"><path fill="#f6f1e3" d="M 159.546875 222.855469 C 145.648438 225.414062 143.574219 227.488281 141.015625 241.386719 C 138.457031 227.488281 136.382812 225.414062 122.484375 222.855469 C 136.382812 220.296875 138.457031 218.222656 141.015625 204.324219 C 143.574219 218.222656 145.648438 220.296875 159.546875 222.855469 Z M 159.546875 222.855469 " fill-opacity="1" fill-rule="nonzero"/></g><g clip-path="url(#d7cfa47775)"><path fill="#f6f1e3" d="M 193.171875 254.953125 C 183.875 256.664062 182.488281 258.050781 180.777344 267.34375 C 179.066406 258.050781 177.679688 256.664062 168.386719 254.953125 C 177.679688 253.242188 179.066406 251.855469 180.777344 242.5625 C 182.488281 251.855469 183.875 253.242188 193.171875 254.953125 Z M 193.171875 254.953125 " fill-opacity="1" fill-rule="nonzero"/></g><g clip-path="url(#89860faf4a)"><path fill="#f6f1e3" d="M 258.515625 222.859375 C 252.617188 223.945312 251.738281 224.824219 250.652344 230.722656 C 249.566406 224.824219 248.6875 223.945312 242.789062 222.859375 C 248.6875 221.773438 249.566406 220.890625 250.652344 214.996094 C 251.738281 220.890625 252.617188 221.773438 258.515625 222.859375 Z M 258.515625 222.859375 " fill-opacity="1" fill-rule="nonzero"/></g><g clip-path="url(#cf5538b9d8)"><path fill="#f6f1e3" d="M 226.351562 204.324219 C 220.457031 205.410156 219.574219 206.289062 218.488281 212.1875 C 217.402344 206.289062 216.523438 205.410156 210.625 204.324219 C 216.523438 203.238281 217.402344 202.359375 218.488281 196.460938 C 219.574219 202.359375 220.457031 203.238281 226.351562 204.324219 Z M 226.351562 204.324219 " fill-opacity="1" fill-rule="nonzero"/></g><g clip-path="url(#3369f1adf6)"><path fill="#f6f1e3" d="M 175.277344 128.003906 C 169.382812 129.089844 168.503906 129.972656 167.417969 135.867188 C 166.332031 129.972656 165.449219 129.089844 159.554688 128.003906 C 165.449219 126.921875 166.332031 126.039062 167.417969 120.144531 C 168.503906 126.039062 169.382812 126.921875 175.277344 128.003906 Z M 175.277344 128.003906 " fill-opacity="1" fill-rule="nonzero"/></g><g clip-path="url(#4a5b0e562c)"><path fill="#f6f1e3" d="M 207.40625 109.5 C 199.425781 110.96875 198.234375 112.160156 196.765625 120.140625 C 195.296875 112.160156 194.105469 110.96875 186.128906 109.5 C 194.105469 108.03125 195.296875 106.839844 196.765625 98.859375 C 198.234375 106.839844 199.425781 108.03125 207.40625 109.5 Z M 207.40625 109.5 " fill-opacity="1" fill-rule="nonzero"/></g></svg>